# xmcd
#
# Track frame offsets: 
#        150
#        22861
#        50863
#        74685
#        101298
#        131175
#        164159
#
# Disc length: 2564 seconds
#
# Revision: 7
# Processed by: cddbd v1.5.2PL0 Copyright (c) Steve Scherf et al.
# Submitted via: ExactAudioCopyFreeDBPlugin 1.0
#
DISCID=660a0207
DTITLE=朱哲琴 - 七日談
DYEAR=2006
DGENRE=New Age
TTITLE0=不翼而飛
TTITLE1=伽南香娑羅樹
TTITLE2=夕陽西下
TTITLE3=了歌
TTITLE4=三托曆
TTITLE5=路過地球
TTITLE6=第七天
EXTD=2006 Dadawa Group Limited .  'ï'ïÍÞÎÄ»¯ÓÐÏÞ¹«Ë¾\n
EXTT0=
EXTT1=
EXTT2=
EXTT3=
EXTT4=
EXTT5=
EXTT6=
PLAYORDER=
